<svg xmlns="http://www.w3.org/2000/svg" xmlns:xlink="http://www.w3.org/1999/xlink" width="500" zoomAndPan="magnify" viewBox="0 0 375 374.999991" height="500" preserveAspectRatio="xMidYMid meet" version="1.0"><defs><linearGradient x1="0" gradientTransform="matrix(0.75, 0, 0, 0.75, 0.0000045, 0)" y1="250" x2="499.999979" gradientUnits="userSpaceOnUse" y2="250" id="737053f4bb"><stop stop-opacity="1" stop-color="rgb(100%, 19.219971%, 19.219971%)" offset="0"/><stop stop-opacity="1" stop-color="rgb(100%, 19.366455%, 19.262695%)" offset="0.0078125"/><stop stop-opacity="1" stop-color="rgb(100%, 19.659424%, 19.348145%)" offset="0.015625"/><stop stop-opacity="1" stop-color="rgb(100%, 19.953918%, 19.433594%)" offset="0.0234375"/><stop stop-opacity="1" stop-color="rgb(100%, 20.248413%, 19.519043%)" offset="0.03125"/><stop stop-opacity="1" stop-color="rgb(100%, 20.541382%, 19.604492%)" offset="0.0390625"/><stop stop-opacity="1" stop-color="rgb(100%, 20.835876%, 19.691467%)" offset="0.046875"/><stop stop-opacity="1" stop-color="rgb(100%, 21.130371%, 19.776917%)" offset="0.0546875"/><stop stop-opacity="1" stop-color="rgb(100%, 21.424866%, 19.862366%)" offset="0.0625"/><stop stop-opacity="1" stop-color="rgb(100%, 21.717834%, 19.947815%)" offset="0.0703125"/><stop stop-opacity="1" stop-color="rgb(100%, 22.012329%, 20.033264%)" offset="0.078125"/><stop stop-opacity="1" stop-color="rgb(100%, 22.306824%, 20.120239%)" offset="0.0859375"/><stop stop-opacity="1" stop-color="rgb(100%, 22.599792%, 20.205688%)" offset="0.09375"/><stop stop-opacity="1" stop-color="rgb(100%, 22.894287%, 20.291138%)" offset="0.101562"/><stop stop-opacity="1" stop-color="rgb(100%, 23.188782%, 20.376587%)" offset="0.109375"/><stop stop-opacity="1" stop-color="rgb(100%, 23.483276%, 20.463562%)" offset="0.117188"/><stop stop-opacity="1" stop-color="rgb(100%, 23.776245%, 20.549011%)" offset="0.125"/><stop stop-opacity="1" stop-color="rgb(100%, 24.07074%, 20.63446%)" offset="0.132812"/><stop stop-opacity="1" stop-color="rgb(100%, 24.365234%, 20.71991%)" offset="0.140625"/><stop stop-opacity="1" stop-color="rgb(100%, 24.658203%, 20.805359%)" offset="0.148437"/><stop stop-opacity="1" stop-color="rgb(100%, 24.952698%, 20.892334%)" offset="0.15625"/><stop stop-opacity="1" stop-color="rgb(100%, 25.247192%, 20.977783%)" offset="0.164062"/><stop stop-opacity="1" stop-color="rgb(100%, 25.541687%, 21.063232%)" offset="0.171875"/><stop stop-opacity="1" stop-color="rgb(100%, 25.834656%, 21.148682%)" offset="0.179687"/><stop stop-opacity="1" stop-color="rgb(100%, 26.12915%, 21.235657%)" offset="0.1875"/><stop stop-opacity="1" stop-color="rgb(100%, 26.423645%, 21.321106%)" offset="0.195312"/><stop stop-opacity="1" stop-color="rgb(100%, 26.716614%, 21.406555%)" offset="0.203125"/><stop stop-opacity="1" stop-color="rgb(100%, 27.011108%, 21.492004%)" offset="0.210938"/><stop stop-opacity="1" stop-color="rgb(100%, 27.305603%, 21.577454%)" offset="0.21875"/><stop stop-opacity="1" stop-color="rgb(100%, 27.600098%, 21.664429%)" offset="0.226562"/><stop stop-opacity="1" stop-color="rgb(100%, 27.893066%, 21.749878%)" offset="0.234375"/><stop stop-opacity="1" stop-color="rgb(100%, 28.187561%, 21.835327%)" offset="0.242188"/><stop stop-opacity="1" stop-color="rgb(100%, 28.482056%, 21.920776%)" offset="0.25"/><stop stop-opacity="1" stop-color="rgb(100%, 28.775024%, 22.006226%)" offset="0.257812"/><stop stop-opacity="1" stop-color="rgb(100%, 29.069519%, 22.093201%)" offset="0.265625"/><stop stop-opacity="1" stop-color="rgb(100%, 29.364014%, 22.17865%)" offset="0.273437"/><stop stop-opacity="1" stop-color="rgb(100%, 29.658508%, 22.264099%)" offset="0.28125"/><stop stop-opacity="1" stop-color="rgb(100%, 29.951477%, 22.349548%)" offset="0.289062"/><stop stop-opacity="1" stop-color="rgb(100%, 30.245972%, 22.436523%)" offset="0.296875"/><stop stop-opacity="1" stop-color="rgb(100%, 30.540466%, 22.521973%)" offset="0.304687"/><stop stop-opacity="1" stop-color="rgb(100%, 30.833435%, 22.607422%)" offset="0.3125"/><stop stop-opacity="1" stop-color="rgb(100%, 31.12793%, 22.692871%)" offset="0.320312"/><stop stop-opacity="1" stop-color="rgb(100%, 31.422424%, 22.77832%)" offset="0.328125"/><stop stop-opacity="1" stop-color="rgb(100%, 31.716919%, 22.865295%)" offset="0.335937"/><stop stop-opacity="1" stop-color="rgb(100%, 32.009888%, 22.950745%)" offset="0.34375"/><stop stop-opacity="1" stop-color="rgb(100%, 32.304382%, 23.036194%)" offset="0.351562"/><stop stop-opacity="1" stop-color="rgb(100%, 32.598877%, 23.121643%)" offset="0.359375"/><stop stop-opacity="1" stop-color="rgb(100%, 32.891846%, 23.208618%)" offset="0.367187"/><stop stop-opacity="1" stop-color="rgb(100%, 33.18634%, 23.294067%)" offset="0.375"/><stop stop-opacity="1" stop-color="rgb(100%, 33.480835%, 23.379517%)" offset="0.382812"/><stop stop-opacity="1" stop-color="rgb(100%, 33.77533%, 23.464966%)" offset="0.390625"/><stop stop-opacity="1" stop-color="rgb(100%, 34.068298%, 23.550415%)" offset="0.398438"/><stop stop-opacity="1" stop-color="rgb(100%, 34.362793%, 23.63739%)" offset="0.40625"/><stop stop-opacity="1" stop-color="rgb(100%, 34.657288%, 23.722839%)" offset="0.414062"/><stop stop-opacity="1" stop-color="rgb(100%, 34.951782%, 23.808289%)" offset="0.421875"/><stop stop-opacity="1" stop-color="rgb(100%, 35.244751%, 23.893738%)" offset="0.429688"/><stop stop-opacity="1" stop-color="rgb(100%, 35.539246%, 23.979187%)" offset="0.4375"/><stop stop-opacity="1" stop-color="rgb(100%, 35.83374%, 24.066162%)" offset="0.445312"/><stop stop-opacity="1" stop-color="rgb(100%, 36.126709%, 24.151611%)" offset="0.453125"/><stop stop-opacity="1" stop-color="rgb(100%, 36.421204%, 24.237061%)" offset="0.460938"/><stop stop-opacity="1" stop-color="rgb(100%, 36.715698%, 24.32251%)" offset="0.46875"/><stop stop-opacity="1" stop-color="rgb(100%, 37.010193%, 24.409485%)" offset="0.476562"/><stop stop-opacity="1" stop-color="rgb(100%, 37.303162%, 24.494934%)" offset="0.484375"/><stop stop-opacity="1" stop-color="rgb(100%, 37.597656%, 24.580383%)" offset="0.492188"/><stop stop-opacity="1" stop-color="rgb(100%, 37.892151%, 24.665833%)" offset="0.5"/><stop stop-opacity="1" stop-color="rgb(100%, 38.18512%, 24.751282%)" offset="0.507812"/><stop stop-opacity="1" stop-color="rgb(100%, 38.479614%, 24.838257%)" offset="0.515625"/><stop stop-opacity="1" stop-color="rgb(100%, 38.774109%, 24.923706%)" offset="0.523437"/><stop stop-opacity="1" stop-color="rgb(100%, 39.068604%, 25.009155%)" offset="0.53125"/><stop stop-opacity="1" stop-color="rgb(100%, 39.361572%, 25.094604%)" offset="0.539062"/><stop stop-opacity="1" stop-color="rgb(100%, 39.656067%, 25.18158%)" offset="0.546875"/><stop stop-opacity="1" stop-color="rgb(100%, 39.950562%, 25.267029%)" offset="0.554687"/><stop stop-opacity="1" stop-color="rgb(100%, 40.24353%, 25.352478%)" offset="0.5625"/><stop stop-opacity="1" stop-color="rgb(100%, 40.538025%, 25.437927%)" offset="0.570312"/><stop stop-opacity="1" stop-color="rgb(100%, 40.83252%, 25.523376%)" offset="0.578125"/><stop stop-opacity="1" stop-color="rgb(100%, 41.127014%, 25.610352%)" offset="0.585937"/><stop stop-opacity="1" stop-color="rgb(100%, 41.419983%, 25.695801%)" offset="0.59375"/><stop stop-opacity="1" stop-color="rgb(100%, 41.714478%, 25.78125%)" offset="0.601562"/><stop stop-opacity="1" stop-color="rgb(100%, 42.008972%, 25.866699%)" offset="0.609375"/><stop stop-opacity="1" stop-color="rgb(100%, 42.301941%, 25.952148%)" offset="0.617187"/><stop stop-opacity="1" stop-color="rgb(100%, 42.596436%, 26.039124%)" offset="0.625"/><stop stop-opacity="1" stop-color="rgb(100%, 42.89093%, 26.124573%)" offset="0.632812"/><stop stop-opacity="1" stop-color="rgb(100%, 43.185425%, 26.210022%)" offset="0.640625"/><stop stop-opacity="1" stop-color="rgb(100%, 43.478394%, 26.295471%)" offset="0.648437"/><stop stop-opacity="1" stop-color="rgb(100%, 43.772888%, 26.382446%)" offset="0.65625"/><stop stop-opacity="1" stop-color="rgb(100%, 44.067383%, 26.467896%)" offset="0.664062"/><stop stop-opacity="1" stop-color="rgb(100%, 44.360352%, 26.553345%)" offset="0.671875"/><stop stop-opacity="1" stop-color="rgb(100%, 44.654846%, 26.638794%)" offset="0.679687"/><stop stop-opacity="1" stop-color="rgb(100%, 44.949341%, 26.724243%)" offset="0.6875"/><stop stop-opacity="1" stop-color="rgb(100%, 45.243835%, 26.811218%)" offset="0.695312"/><stop stop-opacity="1" stop-color="rgb(100%, 45.536804%, 26.896667%)" offset="0.703125"/><stop stop-opacity="1" stop-color="rgb(100%, 45.831299%, 26.982117%)" offset="0.710937"/><stop stop-opacity="1" stop-color="rgb(100%, 46.125793%, 27.067566%)" offset="0.71875"/><stop stop-opacity="1" stop-color="rgb(100%, 46.418762%, 27.154541%)" offset="0.726562"/><stop stop-opacity="1" stop-color="rgb(100%, 46.713257%, 27.23999%)" offset="0.734375"/><stop stop-opacity="1" stop-color="rgb(100%, 47.007751%, 27.325439%)" offset="0.742187"/><stop stop-opacity="1" stop-color="rgb(100%, 47.302246%, 27.410889%)" offset="0.75"/><stop stop-opacity="1" stop-color="rgb(100%, 47.595215%, 27.496338%)" offset="0.757812"/><stop stop-opacity="1" stop-color="rgb(100%, 47.889709%, 27.583313%)" offset="0.765625"/><stop stop-opacity="1" stop-color="rgb(100%, 48.184204%, 27.668762%)" offset="0.773438"/><stop stop-opacity="1" stop-color="rgb(100%, 48.477173%, 27.754211%)" offset="0.78125"/><stop stop-opacity="1" stop-color="rgb(100%, 48.771667%, 27.839661%)" offset="0.789062"/><stop stop-opacity="1" stop-color="rgb(100%, 49.066162%, 27.92511%)" offset="0.796875"/><stop stop-opacity="1" stop-color="rgb(100%, 49.360657%, 28.012085%)" offset="0.804688"/><stop stop-opacity="1" stop-color="rgb(100%, 49.653625%, 28.097534%)" offset="0.8125"/><stop stop-opacity="1" stop-color="rgb(100%, 49.94812%, 28.182983%)" offset="0.820312"/><stop stop-opacity="1" stop-color="rgb(100%, 50.242615%, 28.268433%)" offset="0.828125"/><stop stop-opacity="1" stop-color="rgb(100%, 50.535583%, 28.355408%)" offset="0.835938"/><stop stop-opacity="1" stop-color="rgb(100%, 50.830078%, 28.440857%)" offset="0.84375"/><stop stop-opacity="1" stop-color="rgb(100%, 51.124573%, 28.526306%)" offset="0.851562"/><stop stop-opacity="1" stop-color="rgb(100%, 51.419067%, 28.611755%)" offset="0.859375"/><stop stop-opacity="1" stop-color="rgb(100%, 51.712036%, 28.697205%)" offset="0.867188"/><stop stop-opacity="1" stop-color="rgb(100%, 52.006531%, 28.78418%)" offset="0.875"/><stop stop-opacity="1" stop-color="rgb(100%, 52.301025%, 28.869629%)" offset="0.882812"/><stop stop-opacity="1" stop-color="rgb(100%, 52.59552%, 28.955078%)" offset="0.890625"/><stop stop-opacity="1" stop-color="rgb(100%, 52.888489%, 29.040527%)" offset="0.898438"/><stop stop-opacity="1" stop-color="rgb(100%, 53.182983%, 29.127502%)" offset="0.90625"/><stop stop-opacity="1" stop-color="rgb(100%, 53.477478%, 29.212952%)" offset="0.914062"/><stop stop-opacity="1" stop-color="rgb(100%, 53.770447%, 29.298401%)" offset="0.921875"/><stop stop-opacity="1" stop-color="rgb(100%, 54.064941%, 29.38385%)" offset="0.929688"/><stop stop-opacity="1" stop-color="rgb(100%, 54.359436%, 29.469299%)" offset="0.9375"/><stop stop-opacity="1" stop-color="rgb(100%, 54.653931%, 29.556274%)" offset="0.945312"/><stop stop-opacity="1" stop-color="rgb(100%, 54.946899%, 29.641724%)" offset="0.953125"/><stop stop-opacity="1" stop-color="rgb(100%, 55.241394%, 29.727173%)" offset="0.960938"/><stop stop-opacity="1" stop-color="rgb(100%, 55.535889%, 29.812622%)" offset="0.96875"/><stop stop-opacity="1" stop-color="rgb(100%, 55.828857%, 29.899597%)" offset="0.976562"/><stop stop-opacity="1" stop-color="rgb(100%, 56.123352%, 29.985046%)" offset="0.984375"/><stop stop-opacity="1" stop-color="rgb(100%, 56.417847%, 30.070496%)" offset="0.992188"/><stop stop-opacity="1" stop-color="rgb(100%, 56.712341%, 30.155945%)" offset="1"/></linearGradient><clipPath id="13674293b7"><path d="M 13.453125 11.316406 L 17.710938 11.316406 L 17.710938 14.921875 L 13.453125 14.921875 Z M 13.453125 11.316406 " clip-rule="nonzero"/></clipPath><clipPath id="a3c9e753d0"><path d="M 17.699219 12.601562 C 15.824219 15.601562 14.023438 15.074219 13.648438 14.398438 C 13.273438 13.800781 13.574219 11.925781 14.175781 11.476562 C 14.773438 11.023438 17.175781 11.699219 17.175781 11.699219 " clip-rule="nonzero"/></clipPath><clipPath id="3b47e98748"><path d="M 0.453125 0.316406 L 4.710938 0.316406 L 4.710938 3.921875 L 0.453125 3.921875 Z M 0.453125 0.316406 " clip-rule="nonzero"/></clipPath><clipPath id="97e56f50a3"><path d="M 4.699219 1.601562 C 2.824219 4.601562 1.023438 4.074219 0.648438 3.398438 C 0.273438 2.800781 0.574219 0.925781 1.175781 0.476562 C 1.773438 0.0234375 4.175781 0.699219 4.175781 0.699219 " clip-rule="nonzero"/></clipPath><clipPath id="8ab1bcf92d"><rect x="0" width="5" y="0" height="4"/></clipPath><clipPath id="bf219fea53"><path d="M 74 91.292969 L 301 91.292969 L 301 268 L 74 268 Z M 74 91.292969 " clip-rule="nonzero"/></clipPath></defs><rect x="-37.5" width="450" fill="#ffffff" y="-37.499999" height="449.999989" fill-opacity="1"/><rect x="-37.5" fill="url(#737053f4bb)" width="450" y="-37.499999" height="449.999989"/><g clip-path="url(#13674293b7)"><g clip-path="url(#a3c9e753d0)"><g transform="matrix(1, 0, 0, 1, 13, 11)"><g clip-path="url(#8ab1bcf92d)"><g clip-path="url(#3b47e98748)"><g clip-path="url(#97e56f50a3)"><rect x="-95.5" width="540" fill="#e7191f" height="539.999987" y="-93.499998" fill-opacity="1"/></g></g></g></g></g></g><g clip-path="url(#bf219fea53)"><path fill="#ffffff" d="M 300.109375 96.683594 C 296.738281 112.472656 293.339844 128.265625 289.871094 144.03125 C 288.992188 148.019531 287.539062 148.488281 284.492188 145.773438 C 281.257812 142.890625 278.214844 139.792969 275.074219 136.800781 C 274.84375 136.589844 274.613281 136.371094 274.371094 136.152344 L 272.703125 134.480469 L 271.375 135.8125 C 271.292969 135.890625 271.203125 135.972656 271.117188 136.054688 C 250.210938 156.816406 229.304688 177.578125 208.40625 198.347656 C 201.929688 204.792969 195.472656 211.261719 189.003906 217.71875 C 187.265625 219.457031 185.398438 219.660156 183.367188 218.191406 C 182.167969 217.320312 181.046875 216.324219 179.984375 215.273438 C 174.007812 209.382812 168.066406 203.460938 162.105469 197.546875 C 161.75 197.191406 161.375 196.847656 160.917969 196.410156 C 160.476562 196.832031 160.074219 197.207031 159.6875 197.589844 C 140.175781 217.042969 120.671875 236.507812 101.136719 255.9375 C 100.574219 256.503906 99.996094 257.054688 99.421875 257.597656 L 90.144531 266.875 C 89.386719 267.632812 88.15625 267.632812 87.398438 266.875 L 74.914062 254.394531 C 74.15625 253.636719 74.15625 252.40625 74.914062 251.648438 L 77.273438 249.304688 C 77.4375 249.070312 77.628906 248.847656 77.835938 248.644531 C 101.777344 224.785156 125.710938 200.90625 149.679688 177.082031 C 152.6875 174.097656 155.875 171.277344 159.117188 168.554688 C 161.234375 166.777344 162.085938 166.890625 164.058594 168.800781 C 171.023438 175.550781 177.953125 182.335938 184.890625 189.113281 C 185.183594 189.402344 185.414062 189.769531 185.625 190.03125 C 209.445312 166.148438 233.136719 142.410156 257.210938 118.277344 C 253.941406 115.140625 250.484375 111.871094 247.089844 108.554688 C 246.191406 107.683594 245.390625 106.6875 244.667969 105.664062 C 243.449219 103.945312 243.796875 102.824219 245.84375 102.207031 C 248.15625 101.507812 250.515625 100.949219 252.871094 100.421875 C 266.324219 97.4375 279.777344 94.472656 293.234375 91.523438 C 294.042969 91.347656 294.894531 91.308594 295.722656 91.316406 C 298.933594 91.363281 300.78125 93.535156 300.109375 96.683594 " fill-opacity="1" fill-rule="nonzero"/></g><path fill="#ffffff" d="M 228.890625 193.316406 C 228.273438 193.894531 227.929688 194.195312 227.613281 194.511719 C 217.273438 204.808594 206.945312 215.117188 196.589844 225.394531 C 195.832031 226.148438 195.5 226.875 195.503906 227.945312 C 195.539062 240.25 195.507812 252.5625 195.5625 264.871094 C 195.5625 265.777344 195.578125 266.6875 195.585938 267.597656 C 195.550781 267.75 195.53125 267.914062 195.53125 268.078125 L 195.53125 281.464844 C 195.53125 282.691406 196.519531 283.679688 197.746094 283.679688 L 226.652344 283.679688 C 227.878906 283.679688 228.875 282.691406 228.875 281.464844 L 228.875 278.578125 C 228.882812 278.398438 228.890625 278.214844 228.890625 278.039062 C 228.910156 250.347656 228.894531 222.65625 228.890625 194.957031 C 228.890625 194.546875 228.890625 194.132812 228.890625 193.316406 " fill-opacity="1" fill-rule="nonzero"/><path fill="#ffffff" d="M 272.71875 262.128906 C 272.683594 225.242188 272.621094 188.351562 272.558594 151.460938 L 272.558594 149.429688 L 271.734375 150.28125 C 261.082031 160.914062 250.4375 171.542969 239.8125 182.195312 C 239.46875 182.535156 239.246094 183.160156 239.246094 183.652344 C 239.21875 215.597656 239.21875 247.539062 239.222656 279.480469 C 239.222656 279.644531 239.253906 279.808594 239.296875 279.984375 L 239.296875 281.464844 C 239.296875 282.691406 240.289062 283.679688 241.519531 283.679688 L 270.425781 283.679688 C 271.648438 283.679688 272.640625 282.691406 272.640625 281.464844 L 272.640625 270.996094 C 272.6875 268.042969 272.71875 265.082031 272.71875 262.128906 " fill-opacity="1" fill-rule="nonzero"/><path fill="#ffffff" d="M 139.65625 230.644531 C 129.171875 241.085938 118.6875 251.527344 108.226562 261.996094 C 107.878906 262.335938 107.652344 262.960938 107.652344 263.457031 C 107.636719 264.953125 107.636719 266.449219 107.632812 267.949219 C 107.632812 267.996094 107.621094 268.035156 107.621094 268.089844 L 107.621094 281.453125 C 107.621094 282.683594 108.617188 283.679688 109.847656 283.679688 L 139.023438 283.679688 C 140.253906 283.679688 141.25 282.683594 141.25 281.453125 L 141.25 268.089844 C 141.25 268.050781 141.246094 268.019531 141.246094 267.992188 C 141.234375 257.75 141.226562 247.507812 141.214844 237.265625 C 141.214844 235.261719 141.214844 233.261719 141.214844 231.257812 L 141.25 228.96875 L 139.65625 230.644531 " fill-opacity="1" fill-rule="nonzero"/><path fill="#ffffff" d="M 184.929688 231.304688 L 184.929688 229.152344 L 184.804688 229.152344 C 179.433594 229.546875 175.738281 226.484375 172.203125 223.136719 C 169.804688 220.859375 167.441406 218.539062 165.0625 216.25 C 164.332031 215.550781 163.601562 214.855469 162.875 214.152344 L 159.4375 210.777344 L 158.402344 211.828125 C 158.378906 211.847656 158.355469 211.871094 158.332031 211.890625 C 156.359375 213.867188 154.425781 215.886719 152.410156 217.828125 C 151.613281 218.589844 151.296875 219.386719 151.300781 220.511719 C 151.355469 233.933594 151.328125 247.351562 151.378906 260.78125 C 151.398438 265.398438 151.472656 270.023438 151.585938 274.644531 L 151.585938 281.464844 C 151.585938 282.691406 152.582031 283.679688 153.808594 283.679688 L 182.714844 283.679688 C 183.9375 283.679688 184.929688 282.691406 184.929688 281.464844 L 184.929688 268.078125 C 184.929688 267.898438 184.90625 267.726562 184.863281 267.558594 C 184.898438 255.476562 184.914062 243.390625 184.929688 231.304688 " fill-opacity="1" fill-rule="nonzero"/></svg>